<svg enable-background="new 0 0 100 100" version="1.1" viewBox="0 0 100 100" x="0px" xml:space="preserve" xmlns="http://www.w3.org/2000/svg" xmlns:xlink="http://www.w3.org/1999/xlink" y="0px">
	<g>
		
	</g>
	<g>
		<path d="  M40.438,43.751c0,0,2.851,6.582,12.101,6.415c9.25-0.167,22.167,4,23.417,11.167s-1.062,22.25-4.146,23.083h-6.167l-0.438-11.5  c0,0-2.083,1.583-7.583,1.583s-8.5-3.667-8.5-3.667" fill="none" stroke="#000000" stroke-linecap="round" stroke-linejoin="round" stroke-miterlimit="10" stroke-width="2"/>
		<path d="  M54.039,73.946v10.47h-6.583c-2.75-0.312-6.93-9.13-8.848-13.52c0,0-9.48,1.245-12.948-8.414" fill="none" stroke="#000000" stroke-linecap="round" stroke-linejoin="round" stroke-miterlimit="10" stroke-width="2"/>
		<path d="  M33.289,70.332c0,0,4.583,14.083,8.667,14.083s5.5,0,5.5,0" fill="none" stroke="#000000" stroke-linecap="round" stroke-linejoin="round" stroke-miterlimit="10" stroke-width="2"/>
		<polyline fill="none" points="  59.789,74.408 61.789,84.416 66.206,84.416 " stroke="#000000" stroke-linecap="round" stroke-linejoin="round" stroke-miterlimit="10" stroke-width="2"/>
		<path d="  M35.292,59.041C38.25,56.375,42,51.916,40.25,41.916c0,0-0.75-4.75-3.5-7.75c0,0,6.167,8.167,16.5,3.417c0,0-1.167-3.75-5.833-6.917  s-8.25-1.333-12.583-1.417c-4.333-0.083-5.25-3.667-5.25-3.667s-3,2.75-6.333,1.667c-3.333-1.083-3.25-3.25-8.167-1.667  C10.167,27.166,6,33.082,6,33.082s8.333,5.333,12.833-2.583c0,0-4,10.5-5.667,14s-7.5,20.5,14,17.667  C27.167,62.166,32.333,61.706,35.292,59.041z" fill="none" stroke="#000000" stroke-linecap="round" stroke-linejoin="round" stroke-miterlimit="10" stroke-width="2"/>
		<path d="  M22.167,62.483" fill="none" stroke="#000000" stroke-linecap="round" stroke-linejoin="round" stroke-miterlimit="10" stroke-width="2"/>
		<path d="  M19.315,25.237c0,0,4.14-4.876,8.64-6.063s6.334-1.185,8.438-0.625l-2.691,2.683l-4.425,4.536c0,0,5.429-7.22,14.617-4.595  l-6.333,7.93" fill="none" stroke="#000000" stroke-linecap="round" stroke-linejoin="round" stroke-miterlimit="10" stroke-width="2"/>
		<circle cx="18.25" cy="40.666" fill="none" r="0.75" stroke="#000000" stroke-linecap="round" stroke-linejoin="round" stroke-miterlimit="10" stroke-width="2"/>
		<circle cx="33.417" cy="42.166" fill="none" r="0.75" stroke="#000000" stroke-linecap="round" stroke-linejoin="round" stroke-miterlimit="10" stroke-width="2"/>
		<path d="M16.167,53.916  c0,0,3.292,0.75,3.625,3.208" fill="none" stroke="#000000" stroke-linecap="round" stroke-linejoin="round" stroke-miterlimit="10"/>
		<path d="M23.201,57.973  c0,0,1.625-2.417,4.917-1.875" fill="none" stroke="#000000" stroke-linecap="round" stroke-linejoin="round" stroke-miterlimit="10"/>
		<path d="  M11.297,51.13c0,0,19.582-3.045,23.446,8.36" fill="none" stroke="#000000" stroke-linecap="round" stroke-linejoin="round" stroke-miterlimit="10" stroke-width="2"/>
		<path d="M31.322,61.233c0,0,3.399-2.142,5.726,0c2.327,2.142-0.423,3.767,1.577,5.642  s0.521,5.234,0.521,5.234l-0.538-1.212c0,0-10.289,0.569-12.948-8.414C25.659,62.483,28.821,62.362,31.322,61.233z" stroke="#000000" stroke-miterlimit="10"/>
		<path d="M66.756,52.799c0,0-4.006,3.557-2.006,6.691c2,3.134,4.625,1.384,4.875,5.509  s7.174,2.816,6.623-0.917c0,0-0.254-3.503-0.896-4.592C74.711,58.401,71.636,53.599,66.756,52.799z" stroke="#000000" stroke-miterlimit="10"/>
		<path d="M47.938,61.5c1.75,0.438,2.875-0.394,3.312-2.009c0.438-1.616,3.938-1.259,4.5,0  c0.562,1.259-1.875,3.384-1.125,4.884s0.585,5.312-2.739,4.188c-3.324-1.125-2.511-3.5-5.449-4.062S46.188,61.062,47.938,61.5z" stroke="#000000" stroke-miterlimit="10"/>
		<path d="M65.337,76.372l0.157,4.129c0,0,1.881,0.5,2.381-0.563S68,78.562,69,78  S67.05,73.993,65.337,76.372z" stroke="#000000" stroke-miterlimit="10"/>
		<path d="M91.25,64.083" fill="none" stroke="#000000" stroke-miterlimit="10" stroke-width="2"/>
		<path d="M91.25,64.083c0,0,5.688,2.156,6.188-4.401  l-0.25,0.006C91.5,59.5,91.25,64.083,91.25,64.083c-11.75,5.833-15.331-2.654-15.331-2.654" fill="none" stroke="#000000" stroke-miterlimit="10" stroke-width="2"/>
	</g>
</svg>